<?xml version="1.0" encoding="utf-8"?>
<!-- Generator: Adobe Illustrator 15.0.0, SVG Export Plug-In . SVG Version: 6.00 Build 0)  -->
<!DOCTYPE svg PUBLIC "-//W3C//DTD SVG 1.0//EN" "http://www.w3.org/TR/2001/REC-SVG-20010904/DTD/svg10.dtd">
<svg version="1.0" id="Layer_1" xmlns="http://www.w3.org/2000/svg" xmlns:xlink="http://www.w3.org/1999/xlink" x="0px" y="0px"
	 width="570px" height="82.752px" viewBox="0 0 570 82.752" enable-background="new 0 0 570 82.752" xml:space="preserve">
<g>
	<rect x="461.34" y="29.244" fill="#B1B3B5" width="7.845" height="49.599"/>
	<circle fill="#B1B3B5" cx="465.262" cy="78.843" r="3.922"/>
	<circle fill="#B1B3B5" cx="465.262" cy="29.244" r="3.922"/>
	<rect x="228.458" y="29.244" fill="#717275" width="7.841" height="49.599"/>
	<circle fill="#717275" cx="232.378" cy="78.843" r="3.921"/>
	<circle fill="#717275" cx="232.378" cy="29.244" r="3.921"/>
	<circle fill="#717275" cx="247.815" cy="29.244" r="3.921"/>
	<path fill="#717275" d="M293.454,29.244c0,2.166-1.757,3.922-3.925,3.922c-2.162,0-3.918-1.756-3.918-3.922
		c0-2.165,1.756-3.921,3.918-3.921C291.697,25.323,293.454,27.079,293.454,29.244z"/>
	<circle fill="#717275" cx="268.674" cy="78.788" r="3.921"/>
	<rect x="55.08" y="49.182" fill="#717275" width="7.841" height="29.606"/>
	<circle fill="#717275" cx="59" cy="78.815" r="3.92"/>
	<circle fill="#717275" cx="79.64" cy="28.45" r="3.921"/>
	<circle fill="#717275" cx="128.854" cy="73.341" r="3.921"/>
	<circle fill="#717275" cx="129.823" cy="48.634" r="4.239"/>
	<circle fill="#717275" cx="217.638" cy="28.299" r="3.922"/>
	<circle fill="#717275" cx="197.929" cy="28.299" r="3.921"/>
	<rect x="482.693" y="13.108" fill="#B1B3B5" width="7.842" height="65.725"/>
	<path fill="#B1B3B5" d="M490.535,78.832c0,2.167-1.757,3.923-3.92,3.923c-2.165,0-3.922-1.756-3.922-3.923
		c0-2.164,1.757-3.919,3.922-3.919C488.778,74.913,490.535,76.668,490.535,78.832z"/>
	<circle fill="#B1B3B5" cx="486.614" cy="13.108" r="3.921"/>
	<rect x="408.131" y="13.108" fill="#B1B3B5" width="7.84" height="65.725"/>
	<path fill="#B1B3B5" d="M415.971,78.832c0,2.167-1.756,3.923-3.918,3.923c-2.165,0-3.922-1.756-3.922-3.923
		c0-2.164,1.757-3.919,3.922-3.919C414.215,74.913,415.971,76.668,415.971,78.832z"/>
	<path fill="#B1B3B5" d="M415.971,13.108c0,2.165-1.756,3.921-3.918,3.921c-2.165,0-3.922-1.756-3.922-3.921
		c0-2.166,1.757-3.922,3.922-3.922C414.215,9.186,415.971,10.942,415.971,13.108z"/>
	<circle fill="#B1B3B5" cx="447.402" cy="29.253" r="3.919"/>
	<circle fill="#B1B3B5" cx="426.606" cy="50.81" r="3.92"/>
	<circle fill="#B1B3B5" cx="415.973" cy="54.094" r="3.92"/>
	<circle fill="#B1B3B5" cx="448.43" cy="78.843" r="3.921"/>
	<rect x="202.179" y="13.108" fill="#717275" width="7.842" height="65.725"/>
	<path fill="#717275" d="M210.021,78.832c0,2.167-1.755,3.923-3.92,3.923c-2.165,0-3.922-1.756-3.922-3.923
		c0-2.164,1.757-3.919,3.922-3.919C208.266,74.913,210.021,76.668,210.021,78.832z"/>
	<circle fill="#717275" cx="206.1" cy="13.108" r="3.921"/>
	<rect x="507.327" y="13.108" fill="#B1B3B5" width="7.844" height="65.725"/>
	<path fill="#B1B3B5" d="M515.171,78.832c0,2.167-1.757,3.923-3.923,3.923c-2.161,0-3.921-1.756-3.921-3.923
		c0-2.164,1.76-3.919,3.921-3.919C513.414,74.913,515.171,76.668,515.171,78.832z"/>
	<path fill="#B1B3B5" d="M515.171,13.108c0,2.165-1.757,3.921-3.923,3.921c-2.161,0-3.921-1.756-3.921-3.921
		c0-2.166,1.76-3.922,3.921-3.922C513.414,9.186,515.171,10.942,515.171,13.108z"/>
	<rect x="197.93" y="24.379" fill="#717275" width="19.708" height="7.842"/>
	<circle fill="#717275" cx="232.378" cy="13.877" r="4.68"/>
	<circle fill="#B1B3B5" cx="465.262" cy="13.877" r="4.683"/>
	<polyline fill="#B1B3B5" points="449.926,32.272 429.623,48.305 415.508,59.453 413.775,50.845 444.752,26.364 	"/>
	<polyline fill="#B1B3B5" points="451.563,76.481 429.404,47.96 423.3,49.829 423.253,52.819 445.156,81.002 	"/>
	<g>
		<path fill="#717275" d="M25.105,24.083c10.845,0,16.817,5.727,18.768,8.407c0.608,0.854,0.852,1.463,0.852,2.316
			c0,2.072-1.584,3.535-3.533,3.535c-1.218,0-2.072-0.488-2.924-1.462c-1.828-2.072-5.12-5.728-13.162-5.728
			c-11.211,0-17.183,7.19-17.183,22.179c0,15.233,5.972,22.301,17.183,22.301c7.068,0,11.333-3.169,14.136-5.24
			c0.853-0.61,1.463-0.853,2.316-0.853c1.949,0,3.534,1.584,3.534,3.534c0,1.097-0.366,1.95-1.584,3.047
			c-2.68,2.193-8.529,6.58-18.401,6.58c-15.72,0-25.104-9.383-25.104-29.369C0.001,33.345,9.385,24.083,25.105,24.083z"/>
	</g>
	<polygon fill="#717275" points="251.383,27.613 272.329,77.368 265.015,80.199 244.254,30.885 	"/>
	<polygon fill="#717275" points="285.946,27.644 265,77.398 272.314,80.229 293.074,30.916 	"/>
	<path fill="#717275" d="M79.345,32.372c0,0-14.877-1.568-16.425,16.909H55.08c0,0-1.43-23.614,24.136-24.729"/>
	<path fill="#717275" d="M165.02,24.29c0,0,20.626-1.205,21.666,19.654v19.378h-7.527l0.055-19.214c0,0-0.603-13.001-14.426-12.564
		c0,0-8.046-0.711-14.233,6.351c0,0-1.546,1.86-3.283,1.778c0,0-3.546-0.218-3.286-3.449
		C143.986,36.224,145.519,24.536,165.02,24.29z"/>
	<path fill="#717275" d="M186.686,63.322c0,0-0.767,19.101-24.196,19.433c0,0-21.023,1.81-21.734-17.296
		c0,0-0.985-10.621,10.839-15.548c11.825-4.927,27.592-8.487,27.919-8.487c0.33,0,0.876,7.173,0.876,7.173l-0.271,0.108
		c0,0-17.85,2.848-28.251,9.252c0,0-3.066,2.026-3.229,6.131c-0.165,4.107,1.205,6.571,2.683,8.104s5.31,3.284,10.73,3.614
		c5.419,0.327,14.781-2.575,17.107-12.484l1.398-1.915L186.686,63.322z"/>
	<g>
		<path fill="#B1B3B5" d="M365.121,39.123c0,12.797,32.051,8.044,32.051,27.542c0,11.09-9.141,16.087-20.717,16.087
			c-9.992,0-17.67-4.753-20.837-8.774c-0.612-0.853-0.854-1.462-0.854-2.315c0-1.951,1.587-3.534,3.533-3.534
			c0.733,0,1.708,0.244,2.684,1.218c3.774,3.779,8.651,5.972,15.475,5.972c6.946,0,12.918-2.316,12.918-8.653
			c0-12.552-32.05-7.554-32.05-27.542c0-10.114,8.287-14.744,18.644-14.744c8.287,0,14.746,2.803,18.524,7.799
			c0.367,0.487,0.852,1.218,0.852,2.315c0,1.95-1.584,3.534-3.534,3.534c-0.608,0-1.581-0.122-2.556-1.098
			c-3.294-3.167-6.947-5.117-13.286-5.117C370.484,31.813,365.121,33.52,365.121,39.123z"/>
	</g>
	<g>
		<path fill="#B1B3B5" d="M538.007,39.113c0,12.796,32.049,8.044,32.049,27.542c0,11.09-9.139,16.086-20.716,16.086
			c-9.993,0-17.668-4.752-20.839-8.774c-0.607-0.853-0.853-1.462-0.853-2.316c0-1.95,1.585-3.532,3.533-3.532
			c0.73,0,1.706,0.244,2.682,1.219c3.778,3.777,8.652,5.971,15.477,5.971c6.948,0,12.917-2.315,12.917-8.653
			c0-12.552-32.048-7.556-32.048-27.542c0-10.114,8.285-14.744,18.645-14.744c8.286,0,14.744,2.803,18.521,7.799
			c0.367,0.487,0.854,1.219,0.854,2.316c0,1.949-1.585,3.534-3.532,3.534c-0.608,0-1.585-0.122-2.562-1.098
			c-3.288-3.168-6.944-5.118-13.281-5.118C543.368,31.803,538.007,33.509,538.007,39.113z"/>
	</g>
	<polygon fill="#717275" points="130.837,52.75 94.723,62.835 93.155,55.659 126.528,45.968 	"/>
	<path fill="#717275" d="M134.063,48.634c0,0,2.205-23.796-23.034-24.344c0,0-24.471-2.614-25.21,28.583
		c0,0-1.516,30.746,26.177,29.864c0,0,10.262,0.607,19.347-6.365l-5.1-5.952c0,0-4.046,4.783-13.517,5.111
		s-16.577-5.597-18.087-13.418c-1.512-7.823-4.193-29.994,16.609-30.815c0,0,13.845-1.421,15.49,15L134.063,48.634z"/>
	<circle fill="#717275" cx="340.389" cy="73.341" r="3.92"/>
	<circle fill="#717275" cx="341.358" cy="48.634" r="4.239"/>
	<polygon fill="#717275" points="342.373,52.75 306.191,62.802 304.69,55.659 338.064,45.968 	"/>
	<path fill="#717275" d="M345.598,48.634c0,0,2.205-23.796-23.034-24.344c0,0-24.47-2.614-25.211,28.583
		c0,0-1.515,30.746,26.178,29.864c0,0,10.262,0.607,19.347-6.365l-5.1-5.952c0,0-4.046,4.783-13.517,5.111
		c-9.47,0.328-16.577-5.597-18.087-13.418c-1.511-7.823-4.192-29.994,16.607-30.815c0,0,13.845-1.421,15.491,15L345.598,48.634z"/>
	<circle fill="#EF4B3E" cx="348.87" cy="21.764" r="3.963"/>
	<circle fill="#EF4B3E" cx="361.022" cy="12.896" r="3.962"/>
	<circle fill="#EF4B3E" cx="348.87" cy="4.028" r="3.963"/>
	<polygon fill="#EF4B3E" points="363.272,9.634 351.335,0.926 346.425,7.145 358.709,16.112 	"/>
	<polygon fill="#EF4B3E" points="363.685,15.83 351.416,24.798 346.425,18.647 357.597,10.902 	"/>
</g>
</svg>
